<?xml version="1.0" encoding="UTF-8"?>
<svg id="_レイヤー_2" data-name="レイヤー 2" xmlns="http://www.w3.org/2000/svg" viewBox="0 0 146.33 226.05">
  <defs>
    <style>
      .cls-1 {
        fill: none;
        stroke: #000;
        stroke-linecap: round;
        stroke-linejoin: round;
      }
    </style>
  </defs>
  <g id="segment-a">
    <g>
      <line class="cls-1" x1="145.83" y1="14.28" x2="145.83" y2="101.66"/>
      <line class="cls-1" x1="118.03" y1="32.5" x2="118.03" y2="100.82"/>
      <line class="cls-1" x1="118.03" y1="32.48" x2="140.83" y2="9.28"/>
      <line class="cls-1" x1="140.83" y1="9.28" x2="145.83" y2="14.28"/>
      <line class="cls-1" x1="118.03" y1="100.82" x2="132.61" y2="114.97"/>
      <line class="cls-1" x1="145.83" y1="101.75" x2="132.61" y2="114.97"/>
    </g>
    <g>
      <line class="cls-1" x1="14.15" y1=".67" x2="131.5" y2=".67"/>
      <line class="cls-1" x1="29.15" y1="30.52" x2="115.43" y2="30.52"/>
      <line class="cls-1" x1="115.45" y1="30.52" x2="138.71" y2="7.26"/>
      <line class="cls-1" x1="131.96" y1=".5" x2="138.52" y2="7.06"/>
      <line class="cls-1" x1="28.68" y1="30.52" x2="10.35" y2="4.32"/>
      <line class="cls-1" x1="14.01" y1=".67" x2="10.35" y2="4.32"/>
    </g>
    <g>
      <line class="cls-1" x1="145.83" y1="212.25" x2="145.83" y2="128.58"/>
      <line class="cls-1" x1="118.03" y1="201.52" x2="118.03" y2="132.52"/>
      <line class="cls-1" x1="118.03" y1="201.76" x2="139.2" y2="218.61"/>
      <line class="cls-1" x1="139.2" y1="218.61" x2="145.83" y2="212.25"/>
      <line class="cls-1" x1="118.03" y1="132.39" x2="134.03" y2="117.27"/>
      <line class="cls-1" x1="145.5" y1="128.11" x2="134.33" y2="116.93"/>
    </g>
    <g>
      <line class="cls-1" x1="132.28" y1="225.55" x2="17.89" y2="225.55"/>
      <line class="cls-1" x1="116.22" y1="202.96" x2="26.08" y2="202.96"/>
      <line class="cls-1" x1="26.08" y1="202.96" x2="7.85" y2="218.89"/>
      <line class="cls-1" x1="17.89" y1="225.55" x2="7.85" y2="218.89"/>
      <line class="cls-1" x1="115.95" y1="202.96" x2="137.69" y2="220.34"/>
      <line class="cls-1" x1="132.52" y1="225.55" x2="137.69" y2="220.38"/>
    </g>
    <g>
      <line class="cls-1" x1=".54" y1="13.12" x2=".54" y2="109.16"/>
      <line class="cls-1" x1="27.15" y1="35.57" x2="27.15" y2="102.34"/>
      <line class="cls-1" x1="27.15" y1="35.3" x2="7.58" y2="6.72"/>
      <line class="cls-1" x1="7.47" y1="6.72" x2=".54" y2="13.12"/>
      <line class="cls-1" x1="27.15" y1="102.44" x2="10.48" y2="119.11"/>
      <line class="cls-1" x1=".5" y1="109.65" x2="10.13" y2="118.8"/>
    </g>
    <g>
      <line class="cls-1" x1="31.6" y1="102.89" x2="114.46" y2="102.89"/>
      <line class="cls-1" x1="24.58" y1="130.03" x2="115.46" y2="130.03"/>
      <line class="cls-1" x1="115.65" y1="130.03" x2="129.54" y2="117.03"/>
      <line class="cls-1" x1="114.63" y1="102.89" x2="129.54" y2="117.03"/>
      <line class="cls-1" x1="24.46" y1="129.92" x2="14.13" y2="120.55"/>
      <line class="cls-1" x1="31.6" y1="102.89" x2="14.13" y2="120.55"/>
    </g>
    <g>
      <line class="cls-1" x1=".69" y1="213.96" x2=".69" y2="129.14"/>
      <line class="cls-1" x1="24.07" y1="201.05" x2="24.07" y2="134.62"/>
      <line class="cls-1" x1="24.07" y1="201.05" x2="5.57" y2="217.03"/>
      <line class="cls-1" x1="5.35" y1="217.13" x2=".69" y2="214.14"/>
      <line class="cls-1" x1="23.85" y1="134.62" x2="9.02" y2="121.1"/>
      <line class="cls-1" x1=".85" y1="128.89" x2="8.64" y2="121.1"/>
    </g>
  </g>
</svg>