<?xml version="1.0" encoding="UTF-8"?>
<svg id="_レイヤー_2" data-name="レイヤー 2" xmlns="http://www.w3.org/2000/svg" viewBox="0 0 143.85 228.37">
  <defs>
    <style>
      .cls-1 {
        fill: none;
        stroke: #000;
        stroke-linecap: round;
        stroke-linejoin: round;
      }
    </style>
  </defs>
  <g id="segment-b">
    <g>
      <line class="cls-1" x1="143.35" y1="14.11" x2="143.35" y2="107.16"/>
      <line class="cls-1" x1="116.53" y1="30.65" x2="116.53" y2="98.03"/>
      <line class="cls-1" x1="116.53" y1="30.52" x2="138.31" y2="8.73"/>
      <line class="cls-1" x1="138.34" y1="8.73" x2="143.35" y2="14.11"/>
      <line class="cls-1" x1="116.53" y1="98.03" x2="134.93" y2="116.29"/>
      <line class="cls-1" x1="143.35" y1="107.43" x2="134.93" y2="116.29"/>
    </g>
    <g>
      <line class="cls-1" x1="11.15" y1=".67" x2="128.5" y2=".67"/>
      <line class="cls-1" x1="25.68" y1="28.43" x2="114.55" y2="28.43"/>
      <line class="cls-1" x1="114.55" y1="28.43" x2="135.72" y2="7.26"/>
      <line class="cls-1" x1="128.96" y1=".5" x2="135.53" y2="7.06"/>
      <line class="cls-1" x1="25.68" y1="28.43" x2="8" y2="9.33"/>
      <line class="cls-1" x1="8" y1="4.31" x2="8" y2="9.15"/>
      <line class="cls-1" x1="11.15" y1=".67" x2="8" y2="4.31"/>
    </g>
    <g>
      <line class="cls-1" x1="143.35" y1="213.55" x2="143.35" y2="127.54"/>
      <line class="cls-1" x1="121.31" y1="200.49" x2="121.31" y2="132.14"/>
      <line class="cls-1" x1="121.31" y1="200.49" x2="139.52" y2="217.22"/>
      <line class="cls-1" x1="139.52" y1="217.22" x2="143.35" y2="213.6"/>
      <line class="cls-1" x1="121.31" y1="132.14" x2="134.44" y2="119.05"/>
      <line class="cls-1" x1="143.29" y1="127.41" x2="134.44" y2="119.05"/>
    </g>
    <g>
      <line class="cls-1" x1="128.72" y1="227.87" x2="14.54" y2="227.87"/>
      <line class="cls-1" x1="117.36" y1="201.73" x2="30.42" y2="201.73"/>
      <line class="cls-1" x1="30.42" y1="201.73" x2="8.16" y2="222.35"/>
      <line class="cls-1" x1="14.54" y1="227.87" x2="8.13" y2="222.35"/>
      <line class="cls-1" x1="117.36" y1="201.73" x2="137.51" y2="219.69"/>
      <line class="cls-1" x1="128.72" y1="227.87" x2="137.51" y2="219.69"/>
    </g>
    <g>
      <line class="cls-1" x1=".54" y1="13.68" x2=".54" y2="97.4"/>
      <line class="cls-1" x1="24.1" y1="31.79" x2="24.1" y2="95.46"/>
      <line class="cls-1" x1="24.1" y1="31.79" x2="3.79" y2="9.59"/>
      <line class="cls-1" x1="3.79" y1="9.59" x2=".54" y2="13.68"/>
      <line class="cls-1" x1="24.1" y1="95.54" x2="11.49" y2="108.15"/>
      <line class="cls-1" x1=".77" y1="97.59" x2="11.33" y2="108.15"/>
    </g>
    <g>
      <line class="cls-1" x1="24.1" y1="100.9" x2="113.88" y2="100.9"/>
      <line class="cls-1" x1="28.48" y1="127.35" x2="121.31" y2="127.35"/>
      <line class="cls-1" x1="121.31" y1="127.35" x2="130.97" y2="117.69"/>
      <line class="cls-1" x1="114.06" y1="101.04" x2="130.92" y2="117.64"/>
      <line class="cls-1" x1="28.48" y1="127.35" x2="13.81" y2="111.16"/>
      <line class="cls-1" x1="24.1" y1="100.9" x2="13.84" y2="111.16"/>
    </g>
    <g>
      <line class="cls-1" x1=".5" y1="216.6" x2=".5" y2="123.95"/>
      <line class="cls-1" x1="26.45" y1="200.76" x2="26.45" y2="130.44"/>
      <line class="cls-1" x1="26.45" y1="200.93" x2="5.33" y2="220.23"/>
      <line class="cls-1" x1="5.39" y1="220.23" x2=".5" y2="216.6"/>
      <line class="cls-1" x1="26.45" y1="130.44" x2="11.33" y2="113.43"/>
      <line class="cls-1" x1=".67" y1="123.71" x2="11.34" y2="113.48"/>
    </g>
  </g>
</svg>