<?xml version="1.0" encoding="UTF-8"?>
<svg id="segment-b" xmlns="http://www.w3.org/2000/svg" viewBox="0 0 1024 768">
  <path d="M89.16,334.12h.12v9.88h-9.88v-9.88h9.76ZM89.16,346.17h.12v9.88h-9.88v-9.88h9.76ZM89.16,358.22h.12v9.88h-9.88v-9.88h9.76ZM89.16,370.26h.12v9.88h-9.88v-9.88h9.76ZM89.16,382.31h.12v9.88h-9.88v-9.88h9.76ZM89.16,394.36h.12v9.88h-9.88v-9.88h9.76ZM89.16,406.41h.12v9.88h-9.88v-9.88h9.76ZM101.2,382.31h.12v9.88h-9.88v-9.88h9.76ZM113.25,382.31h.12v9.88h-9.88v-9.88h9.76ZM125.3,370.26h.12v9.88h-9.88v-9.88h9.76ZM125.3,394.36h.12v9.88h-9.88v-9.88h9.76ZM137.34,358.22h.12v9.88h-9.88v-9.88h9.76ZM137.34,406.41h.12v9.88h-9.88v-9.88h9.76Z"/>
  <path d="M161.44,394.36h.12v9.88h-9.88v-9.88h9.76ZM173.48,358.22h.12v9.88h-9.88v-9.88h9.76ZM173.48,382.31h.12v9.88h-9.88v-9.88h9.76ZM173.48,406.41h.12v9.88h-9.88v-9.88h9.76ZM185.53,358.22h.12v9.88h-9.88v-9.88h9.76ZM185.53,382.31h.12v9.88h-9.88v-9.88h9.76ZM185.53,406.41h.12v9.88h-9.88v-9.88h9.76ZM197.58,358.22h.12v9.88h-9.88v-9.88h9.76ZM197.58,382.31h.12v9.88h-9.88v-9.88h9.76ZM197.58,406.41h.12v9.88h-9.88v-9.88h9.76ZM209.62,370.26h.12v9.88h-9.88v-9.88h9.76ZM209.62,382.31h.12v9.88h-9.88v-9.88h9.76ZM209.62,394.36h.12v9.88h-9.88v-9.88h9.76ZM209.62,406.41h.12v9.88h-9.88v-9.88h9.76Z"/>
  <path d="M233.72,370.26h.12v9.88h-9.88v-9.88h9.76ZM233.72,382.31h.12v9.88h-9.88v-9.88h9.76ZM233.72,418.45h.12v9.88h-9.88v-9.88h9.76ZM245.76,358.22h.12v9.88h-9.88v-9.88h9.76ZM245.76,394.36h.12v9.88h-9.88v-9.88h9.76ZM245.76,430.5h.12v9.88h-9.88v-9.88h9.76ZM257.81,358.22h.12v9.88h-9.88v-9.88h9.76ZM257.81,394.36h.12v9.88h-9.88v-9.88h9.76ZM257.81,430.5h.12v9.88h-9.88v-9.88h9.76ZM269.86,358.22h.12v9.88h-9.88v-9.88h9.76ZM269.86,394.36h.12v9.88h-9.88v-9.88h9.76ZM269.86,430.5h.12v9.88h-9.88v-9.88h9.76ZM281.91,358.22h.12v9.88h-9.88v-9.88h9.76ZM281.91,370.26h.12v9.88h-9.88v-9.88h9.76ZM281.91,382.31h.12v9.88h-9.88v-9.88h9.76ZM281.91,394.36h.12v9.88h-9.88v-9.88h9.76ZM281.91,406.41h.12v9.88h-9.88v-9.88h9.76ZM281.91,418.45h.12v9.88h-9.88v-9.88h9.76Z"/>
  <path d="M306,358.22h.12v9.88h-9.88v-9.88h9.76ZM306,370.26h.12v9.88h-9.88v-9.88h9.76ZM306,382.31h.12v9.88h-9.88v-9.88h9.76ZM306,394.36h.12v9.88h-9.88v-9.88h9.76ZM318.05,406.41h.12v9.88h-9.88v-9.88h9.76ZM330.09,406.41h.12v9.88h-9.88v-9.88h9.76ZM342.14,394.36h.12v9.88h-9.88v-9.88h9.76ZM354.19,358.22h.12v9.88h-9.88v-9.88h9.76ZM354.19,370.26h.12v9.88h-9.88v-9.88h9.76ZM354.19,382.31h.12v9.88h-9.88v-9.88h9.76ZM354.19,394.36h.12v9.88h-9.88v-9.88h9.76ZM354.19,406.41h.12v9.88h-9.88v-9.88h9.76Z"/>
  <path d="M378.28,358.22h.12v9.88h-9.88v-9.88h9.76ZM378.28,370.26h.12v9.88h-9.88v-9.88h9.76ZM378.28,382.31h.12v9.88h-9.88v-9.88h9.76ZM378.28,418.45h.12v9.88h-9.88v-9.88h9.76ZM390.33,394.36h.12v9.88h-9.88v-9.88h9.76ZM390.33,430.5h.12v9.88h-9.88v-9.88h9.76ZM402.37,394.36h.12v9.88h-9.88v-9.88h9.76ZM402.37,430.5h.12v9.88h-9.88v-9.88h9.76ZM414.42,382.31h.12v9.88h-9.88v-9.88h9.76ZM414.42,430.5h.12v9.88h-9.88v-9.88h9.76ZM426.47,358.22h.12v9.88h-9.88v-9.88h9.76ZM426.47,370.26h.12v9.88h-9.88v-9.88h9.76ZM426.47,382.31h.12v9.88h-9.88v-9.88h9.76ZM426.47,394.36h.12v9.88h-9.88v-9.88h9.76ZM426.47,406.41h.12v9.88h-9.88v-9.88h9.76ZM426.47,418.45h.12v9.88h-9.88v-9.88h9.76Z"/>
  <path d="M450.56,394.36h.12v9.88h-9.88v-9.88h9.76ZM462.61,358.22h.12v9.88h-9.88v-9.88h9.76ZM462.61,382.31h.12v9.88h-9.88v-9.88h9.76ZM462.61,406.41h.12v9.88h-9.88v-9.88h9.76ZM474.66,358.22h.12v9.88h-9.88v-9.88h9.76ZM474.66,382.31h.12v9.88h-9.88v-9.88h9.76ZM474.66,406.41h.12v9.88h-9.88v-9.88h9.76ZM486.7,358.22h.12v9.88h-9.88v-9.88h9.76ZM486.7,382.31h.12v9.88h-9.88v-9.88h9.76ZM486.7,406.41h.12v9.88h-9.88v-9.88h9.76ZM498.75,370.26h.12v9.88h-9.88v-9.88h9.76ZM498.75,382.31h.12v9.88h-9.88v-9.88h9.76ZM498.75,394.36h.12v9.88h-9.88v-9.88h9.76ZM498.75,406.41h.12v9.88h-9.88v-9.88h9.76Z"/>
  <path d="M522.84,370.26h.12v9.88h-9.88v-9.88h9.76ZM534.89,370.26h.12v9.88h-9.88v-9.88h9.76ZM546.94,370.26h.12v9.88h-9.88v-9.88h9.76ZM558.98,370.26h.12v9.88h-9.88v-9.88h9.76ZM571.03,370.26h.12v9.88h-9.88v-9.88h9.76Z"/>
  <path d="M595.12,370.26h.12v9.88h-9.88v-9.88h9.76ZM595.12,382.31h.12v9.88h-9.88v-9.88h9.76ZM595.12,394.36h.12v9.88h-9.88v-9.88h9.76ZM607.17,358.22h.12v9.88h-9.88v-9.88h9.76ZM607.17,406.41h.12v9.88h-9.88v-9.88h9.76ZM619.22,358.22h.12v9.88h-9.88v-9.88h9.76ZM619.22,406.41h.12v9.88h-9.88v-9.88h9.76ZM631.26,358.22h.12v9.88h-9.88v-9.88h9.76ZM631.26,406.41h.12v9.88h-9.88v-9.88h9.76ZM643.31,370.26h.12v9.88h-9.88v-9.88h9.76ZM643.31,394.36h.12v9.88h-9.88v-9.88h9.76Z"/>
  <path d="M679.45,334.12h.12v9.88h-9.88v-9.88h9.76ZM679.45,406.41h.12v9.88h-9.88v-9.88h9.76ZM691.5,334.12h.12v9.88h-9.88v-9.88h9.76ZM691.5,346.17h.12v9.88h-9.88v-9.88h9.76ZM691.5,358.22h.12v9.88h-9.88v-9.88h9.76ZM691.5,370.26h.12v9.88h-9.88v-9.88h9.76ZM691.5,382.31h.12v9.88h-9.88v-9.88h9.76ZM691.5,394.36h.12v9.88h-9.88v-9.88h9.76ZM691.5,406.41h.12v9.88h-9.88v-9.88h9.76ZM703.55,406.41h.12v9.88h-9.88v-9.88h9.76Z"/>
  <path d="M739.69,370.26h.12v9.88h-9.88v-9.88h9.76ZM739.69,382.31h.12v9.88h-9.88v-9.88h9.76ZM739.69,394.36h.12v9.88h-9.88v-9.88h9.76ZM751.73,358.22h.12v9.88h-9.88v-9.88h9.76ZM751.73,406.41h.12v9.88h-9.88v-9.88h9.76ZM763.78,358.22h.12v9.88h-9.88v-9.88h9.76ZM763.78,406.41h.12v9.88h-9.88v-9.88h9.76ZM775.83,358.22h.12v9.88h-9.88v-9.88h9.76ZM775.83,406.41h.12v9.88h-9.88v-9.88h9.76ZM787.87,370.26h.12v9.88h-9.88v-9.88h9.76ZM787.87,382.31h.12v9.88h-9.88v-9.88h9.76ZM787.87,394.36h.12v9.88h-9.88v-9.88h9.76Z"/>
  <path d="M811.97,370.26h.12v9.88h-9.88v-9.88h9.76ZM811.97,382.31h.12v9.88h-9.88v-9.88h9.76ZM811.97,394.36h.12v9.88h-9.88v-9.88h9.76ZM824.01,358.22h.12v9.88h-9.88v-9.88h9.76ZM824.01,406.41h.12v9.88h-9.88v-9.88h9.76ZM836.06,358.22h.12v9.88h-9.88v-9.88h9.76ZM836.06,406.41h.12v9.88h-9.88v-9.88h9.76ZM848.11,358.22h.12v9.88h-9.88v-9.88h9.76ZM848.11,406.41h.12v9.88h-9.88v-9.88h9.76ZM860.16,370.26h.12v9.88h-9.88v-9.88h9.76ZM860.16,394.36h.12v9.88h-9.88v-9.88h9.76Z"/>
  <path d="M884.25,334.12h.12v9.88h-9.88v-9.88h9.76ZM884.25,346.17h.12v9.88h-9.88v-9.88h9.76ZM884.25,358.22h.12v9.88h-9.88v-9.88h9.76ZM884.25,370.26h.12v9.88h-9.88v-9.88h9.76ZM884.25,382.31h.12v9.88h-9.88v-9.88h9.76ZM884.25,394.36h.12v9.88h-9.88v-9.88h9.76ZM884.25,406.41h.12v9.88h-9.88v-9.88h9.76ZM896.3,382.31h.12v9.88h-9.88v-9.88h9.76ZM908.34,382.31h.12v9.88h-9.88v-9.88h9.76ZM920.39,370.26h.12v9.88h-9.88v-9.88h9.76ZM920.39,394.36h.12v9.88h-9.88v-9.88h9.76ZM932.44,358.22h.12v9.88h-9.88v-9.88h9.76ZM932.44,406.41h.12v9.88h-9.88v-9.88h9.76Z"/>
</svg>