<?xml version="1.0" encoding="UTF-8"?>
<svg id="segment-b" xmlns="http://www.w3.org/2000/svg" viewBox="0 0 853.16 106.25">
  <path d="M9.76,0h.12v9.88H0V0h9.76ZM9.76,12.05h.12v9.88H0v-9.88h9.76ZM9.76,24.09h.12v9.88H0v-9.88h9.76ZM9.76,36.14h.12v9.88H0v-9.88h9.76ZM9.76,48.19h.12v9.88H0v-9.88h9.76ZM9.76,60.24h.12v9.88H0v-9.88h9.76ZM9.76,72.28h.12v9.88H0v-9.88h9.76ZM21.81,48.19h.12v9.88h-9.88v-9.88h9.76ZM33.85,48.19h.12v9.88h-9.88v-9.88h9.76ZM45.9,36.14h.12v9.88h-9.88v-9.88h9.76ZM45.9,60.24h.12v9.88h-9.88v-9.88h9.76ZM57.95,24.09h.12v9.88h-9.88v-9.88h9.76ZM57.95,72.28h.12v9.88h-9.88v-9.88h9.76Z"/>
  <path d="M82.04,60.24h.12v9.88h-9.88v-9.88h9.76ZM94.09,24.09h.12v9.88h-9.88v-9.88h9.76ZM94.09,48.19h.12v9.88h-9.88v-9.88h9.76ZM94.09,72.28h.12v9.88h-9.88v-9.88h9.76ZM106.13,24.09h.12v9.88h-9.88v-9.88h9.76ZM106.13,48.19h.12v9.88h-9.88v-9.88h9.76ZM106.13,72.28h.12v9.88h-9.88v-9.88h9.76ZM118.18,24.09h.12v9.88h-9.88v-9.88h9.76ZM118.18,48.19h.12v9.88h-9.88v-9.88h9.76ZM118.18,72.28h.12v9.88h-9.88v-9.88h9.76ZM130.23,36.14h.12v9.88h-9.88v-9.88h9.76ZM130.23,48.19h.12v9.88h-9.88v-9.88h9.76ZM130.23,60.24h.12v9.88h-9.88v-9.88h9.76ZM130.23,72.28h.12v9.88h-9.88v-9.88h9.76Z"/>
  <path d="M154.32,36.14h.12v9.88h-9.88v-9.88h9.76ZM154.32,48.19h.12v9.88h-9.88v-9.88h9.76ZM154.32,84.33h.12v9.88h-9.88v-9.88h9.76ZM166.37,24.09h.12v9.88h-9.88v-9.88h9.76ZM166.37,60.24h.12v9.88h-9.88v-9.88h9.76ZM166.37,96.38h.12v9.88h-9.88v-9.88h9.76ZM178.42,24.09h.12v9.88h-9.88v-9.88h9.76ZM178.42,60.24h.12v9.88h-9.88v-9.88h9.76ZM178.42,96.38h.12v9.88h-9.88v-9.88h9.76ZM190.46,24.09h.12v9.88h-9.88v-9.88h9.76ZM190.46,60.24h.12v9.88h-9.88v-9.88h9.76ZM190.46,96.38h.12v9.88h-9.88v-9.88h9.76ZM202.51,24.09h.12v9.88h-9.88v-9.88h9.76ZM202.51,36.14h.12v9.88h-9.88v-9.88h9.76ZM202.51,48.19h.12v9.88h-9.88v-9.88h9.76ZM202.51,60.24h.12v9.88h-9.88v-9.88h9.76ZM202.51,72.28h.12v9.88h-9.88v-9.88h9.76ZM202.51,84.33h.12v9.88h-9.88v-9.88h9.76Z"/>
  <path d="M226.6,24.09h.12v9.88h-9.88v-9.88h9.76ZM226.6,36.14h.12v9.88h-9.88v-9.88h9.76ZM226.6,48.19h.12v9.88h-9.88v-9.88h9.76ZM226.6,60.24h.12v9.88h-9.88v-9.88h9.76ZM238.65,72.28h.12v9.88h-9.88v-9.88h9.76ZM250.7,72.28h.12v9.88h-9.88v-9.88h9.76ZM262.74,60.24h.12v9.88h-9.88v-9.88h9.76ZM274.79,24.09h.12v9.88h-9.88v-9.88h9.76ZM274.79,36.14h.12v9.88h-9.88v-9.88h9.76ZM274.79,48.19h.12v9.88h-9.88v-9.88h9.76ZM274.79,60.24h.12v9.88h-9.88v-9.88h9.76ZM274.79,72.28h.12v9.88h-9.88v-9.88h9.76Z"/>
  <path d="M298.88,24.09h.12v9.88h-9.88v-9.88h9.76ZM298.88,36.14h.12v9.88h-9.88v-9.88h9.76ZM298.88,48.19h.12v9.88h-9.88v-9.88h9.76ZM298.88,84.33h.12v9.88h-9.88v-9.88h9.76ZM310.93,60.24h.12v9.88h-9.88v-9.88h9.76ZM310.93,96.38h.12v9.88h-9.88v-9.88h9.76ZM322.98,60.24h.12v9.88h-9.88v-9.88h9.76ZM322.98,96.38h.12v9.88h-9.88v-9.88h9.76ZM335.02,48.19h.12v9.88h-9.88v-9.88h9.76ZM335.02,96.38h.12v9.88h-9.88v-9.88h9.76ZM347.07,24.09h.12v9.88h-9.88v-9.88h9.76ZM347.07,36.14h.12v9.88h-9.88v-9.88h9.76ZM347.07,48.19h.12v9.88h-9.88v-9.88h9.76ZM347.07,60.24h.12v9.88h-9.88v-9.88h9.76ZM347.07,72.28h.12v9.88h-9.88v-9.88h9.76ZM347.07,84.33h.12v9.88h-9.88v-9.88h9.76Z"/>
  <path d="M371.17,60.24h.12v9.88h-9.88v-9.88h9.76ZM383.21,24.09h.12v9.88h-9.88v-9.88h9.76ZM383.21,48.19h.12v9.88h-9.88v-9.88h9.76ZM383.21,72.28h.12v9.88h-9.88v-9.88h9.76ZM395.26,24.09h.12v9.88h-9.88v-9.88h9.76ZM395.26,48.19h.12v9.88h-9.88v-9.88h9.76ZM395.26,72.28h.12v9.88h-9.88v-9.88h9.76ZM407.31,24.09h.12v9.88h-9.88v-9.88h9.76ZM407.31,48.19h.12v9.88h-9.88v-9.88h9.76ZM407.31,72.28h.12v9.88h-9.88v-9.88h9.76ZM419.35,36.14h.12v9.88h-9.88v-9.88h9.76ZM419.35,48.19h.12v9.88h-9.88v-9.88h9.76ZM419.35,60.24h.12v9.88h-9.88v-9.88h9.76ZM419.35,72.28h.12v9.88h-9.88v-9.88h9.76Z"/>
  <path d="M443.45,36.14h.12v9.88h-9.88v-9.88h9.76ZM455.49,36.14h.12v9.88h-9.88v-9.88h9.76ZM467.54,36.14h.12v9.88h-9.88v-9.88h9.76ZM479.59,36.14h.12v9.88h-9.88v-9.88h9.76ZM491.63,36.14h.12v9.88h-9.88v-9.88h9.76Z"/>
  <path d="M515.73,36.14h.12v9.88h-9.88v-9.88h9.76ZM515.73,48.19h.12v9.88h-9.88v-9.88h9.76ZM515.73,60.24h.12v9.88h-9.88v-9.88h9.76ZM527.77,24.09h.12v9.88h-9.88v-9.88h9.76ZM527.77,72.28h.12v9.88h-9.88v-9.88h9.76ZM539.82,24.09h.12v9.88h-9.88v-9.88h9.76ZM539.82,72.28h.12v9.88h-9.88v-9.88h9.76ZM551.87,24.09h.12v9.88h-9.88v-9.88h9.76ZM551.87,72.28h.12v9.88h-9.88v-9.88h9.76ZM563.92,36.14h.12v9.88h-9.88v-9.88h9.76ZM563.92,60.24h.12v9.88h-9.88v-9.88h9.76Z"/>
  <path d="M600.06,0h.12v9.88h-9.88V0h9.76ZM600.06,72.28h.12v9.88h-9.88v-9.88h9.76ZM612.1,0h.12v9.88h-9.88V0h9.76ZM612.1,12.05h.12v9.88h-9.88v-9.88h9.76ZM612.1,24.09h.12v9.88h-9.88v-9.88h9.76ZM612.1,36.14h.12v9.88h-9.88v-9.88h9.76ZM612.1,48.19h.12v9.88h-9.88v-9.88h9.76ZM612.1,60.24h.12v9.88h-9.88v-9.88h9.76ZM612.1,72.28h.12v9.88h-9.88v-9.88h9.76ZM624.15,72.28h.12v9.88h-9.88v-9.88h9.76Z"/>
  <path d="M660.29,36.14h.12v9.88h-9.88v-9.88h9.76ZM660.29,48.19h.12v9.88h-9.88v-9.88h9.76ZM660.29,60.24h.12v9.88h-9.88v-9.88h9.76ZM672.34,24.09h.12v9.88h-9.88v-9.88h9.76ZM672.34,72.28h.12v9.88h-9.88v-9.88h9.76ZM684.38,24.09h.12v9.88h-9.88v-9.88h9.76ZM684.38,72.28h.12v9.88h-9.88v-9.88h9.76ZM696.43,24.09h.12v9.88h-9.88v-9.88h9.76ZM696.43,72.28h.12v9.88h-9.88v-9.88h9.76ZM708.48,36.14h.12v9.88h-9.88v-9.88h9.76ZM708.48,48.19h.12v9.88h-9.88v-9.88h9.76ZM708.48,60.24h.12v9.88h-9.88v-9.88h9.76Z"/>
  <path d="M732.57,36.14h.12v9.88h-9.88v-9.88h9.76ZM732.57,48.19h.12v9.88h-9.88v-9.88h9.76ZM732.57,60.24h.12v9.88h-9.88v-9.88h9.76ZM744.62,24.09h.12v9.88h-9.88v-9.88h9.76ZM744.62,72.28h.12v9.88h-9.88v-9.88h9.76ZM756.67,24.09h.12v9.88h-9.88v-9.88h9.76ZM756.67,72.28h.12v9.88h-9.88v-9.88h9.76ZM768.71,24.09h.12v9.88h-9.88v-9.88h9.76ZM768.71,72.28h.12v9.88h-9.88v-9.88h9.76ZM780.76,36.14h.12v9.88h-9.88v-9.88h9.76ZM780.76,60.24h.12v9.88h-9.88v-9.88h9.76Z"/>
  <path d="M804.85,0h.12v9.88h-9.88V0h9.76ZM804.85,12.05h.12v9.88h-9.88v-9.88h9.76ZM804.85,24.09h.12v9.88h-9.88v-9.88h9.76ZM804.85,36.14h.12v9.88h-9.88v-9.88h9.76ZM804.85,48.19h.12v9.88h-9.88v-9.88h9.76ZM804.85,60.24h.12v9.88h-9.88v-9.88h9.76ZM804.85,72.28h.12v9.88h-9.88v-9.88h9.76ZM816.9,48.19h.12v9.88h-9.88v-9.88h9.76ZM828.95,48.19h.12v9.88h-9.88v-9.88h9.76ZM840.99,36.14h.12v9.88h-9.88v-9.88h9.76ZM840.99,60.24h.12v9.88h-9.88v-9.88h9.76ZM853.04,24.09h.12v9.88h-9.88v-9.88h9.76ZM853.04,72.28h.12v9.88h-9.88v-9.88h9.76Z"/>
</svg>